<svg width="1440" height="780" viewBox="0 0 1440 780" fill="none" xmlns="http://www.w3.org/2000/svg">
<path d="M53.8772 777.576C74.9217 684.2 166.421 490.818 364.061 464.298C611.112 431.148 789.712 612.305 1066.16 555.479C1287.32 510.017 1472.98 167.625 1538.17 2.11108M-9.22139 451.837C27.6483 522.688 151.724 654.364 353.069 614.259C604.75 564.127 940.079 97.063 1262.15 134.758C1519.8 164.914 1738.81 206.601 1816.1 223.675M-4.58427 635.541C8.98691 523.213 96.1377 288.193 336.171 246.742C636.214 194.929 860.73 399.473 1184.82 336.279C1444.08 285.723 1614.96 133.043 1667.99 63.0228" stroke="white" stroke-opacity="0.8" stroke-width="3" stroke-linecap="round"/>
</svg>
